<?xml version="1.0" encoding="utf-8"?>
<!-- Generator: Adobe Illustrator 25.0.0, SVG Export Plug-In . SVG Version: 6.00 Build 0)  -->
<svg version="1.1" xmlns="http://www.w3.org/2000/svg" xmlns:xlink="http://www.w3.org/1999/xlink" x="0px" y="0px"
	 viewBox="0 0 300 300" style="enable-background:new 0 0 300 300;" xml:space="preserve">
<style type="text/css">
	.st0{fill:#29ABE2;}
	.st1{display:none;}
	.st2{display:inline;}
	.st3{fill:#FFFFFF;}
	.st4{display:inline;fill:#F15A24;}
</style>
<g id="Recycle">
	<path class="st0" d="M225.59,52.5H73.41c-8.75,0-15.91,7.16-15.91,15.91v152.18c0,8.75,7.16,15.91,15.91,15.91h41.5
		c1.4,0,2.69,0.75,3.39,1.96l27.82,48.18c1.51,2.61,5.27,2.61,6.77,0l27.82-48.18c0.7-1.21,1.99-1.96,3.39-1.96h41.5
		c8.75,0,15.91-7.16,15.91-15.91V68.41C241.5,59.66,234.34,52.5,225.59,52.5z"/>
	<g class="st1">
		<g id="Icon-Refresh" transform="translate(30.000000, 432.000000)" class="st2">
			<path id="Fill-77" class="st3" d="M119.87-219.77c-37.11,0-67.39-30.27-67.39-67.39c0-16.28,5.86-32.23,16.93-44.6l7.16,6.51
				c-9.44,10.42-14.32,24.09-14.32,38.09c0,31.9,25.72,57.62,57.62,57.62c8.46,0,16.6-1.63,24.09-5.21l3.91,8.79
				C139.08-221.73,129.64-219.77,119.87-219.77"/>
			<path id="Fill-78" class="st3" d="M170-242.24l-7.16-6.51c9.44-10.42,14.65-24.09,14.65-38.41c0-31.9-25.72-57.62-57.62-57.62
				c-8.46,0-16.6,1.63-24.09,5.21l-3.91-8.79c8.79-3.91,18.23-6.19,28-6.19c37.11,0,67.39,30.27,67.39,67.39
				C187.26-270.56,181.07-254.61,170-242.24"/>
			<polyline id="Fill-79" class="st3" points="83.41,-292.37 72.99,-292.37 72.99,-323.62 41.74,-323.62 41.74,-334.04 
				83.41,-334.04 83.41,-292.37 			"/>
			<polyline id="Fill-80" class="st3" points="198,-240.28 156.33,-240.28 156.33,-281.95 166.75,-281.95 166.75,-250.7 198,-250.7 
				198,-240.28 			"/>
		</g>
	</g>
	<g id="Layer_2">
		<g>
			<path class="st3" d="M215,147.19c0-23.45-12.65-45.28-33-56.96c-2.83-1.63-6.44-0.65-8.07,2.18c-1.63,2.83-0.65,6.44,2.18,8.07
				c16.7,9.59,27.07,27.48,27.07,46.71c0,28.41-22.14,51.75-50.07,53.69l9.81-9.81c2.31-2.31,2.31-6.05,0-8.36
				c-2.31-2.31-6.05-2.31-8.36,0l-18.76,18.76c-1.11,1.11-1.73,2.61-1.73,4.18s0.62,3.07,1.73,4.18l18.76,18.77
				c1.15,1.15,2.67,1.73,4.18,1.73c1.51,0,3.03-0.58,4.18-1.73c2.31-2.31,2.31-6.05,0-8.36l-7.66-7.66
				C188.7,209.58,215,181.4,215,147.19z"/>
			<path class="st3" d="M135.79,110.4c1.15,1.15,2.67,1.73,4.18,1.73c1.51,0,3.03-0.58,4.18-1.73l18.76-18.76
				c1.11-1.11,1.73-2.61,1.73-4.18c0-1.57-0.62-3.07-1.73-4.18l-18.76-18.76c-2.31-2.31-6.05-2.31-8.36,0
				c-2.31,2.31-2.31,6.05,0,8.36l8.84,8.84c-34,2.43-60.92,30.86-60.92,65.48c0,23.47,12.66,45.3,33.04,56.99
				c0.93,0.53,1.94,0.78,2.93,0.78c2.05,0,4.04-1.07,5.13-2.97c1.63-2.83,0.64-6.44-2.19-8.07c-16.71-9.58-27.09-27.49-27.09-46.73
				c0-27.94,21.4-50.98,48.68-53.57l-8.42,8.42C133.48,104.35,133.48,108.09,135.79,110.4z"/>
		</g>
	</g>
</g>
<g id="Slow_down" class="st1">
	<path class="st4" d="M225.59,52.5H73.41c-8.75,0-15.91,7.16-15.91,15.91v152.18c0,8.75,7.16,15.91,15.91,15.91h41.5
		c1.4,0,2.69,0.75,3.39,1.96l27.82,48.18c1.51,2.61,5.27,2.61,6.77,0l27.82-48.18c0.7-1.21,1.99-1.96,3.39-1.96h41.5
		c8.75,0,15.91-7.16,15.91-15.91V68.41C241.5,59.66,234.34,52.5,225.59,52.5z"/>
	<g id="Layer_2_1_" class="st2">
		<path class="st3" d="M149.23,211.33c-2.98,0-5.4-2.42-5.4-5.4c0-2.98,2.42-5.4,5.4-5.4c29.81,0,53.98-24.16,53.99-53.97
			c0-29.81-24.16-53.98-53.97-53.99c-29.81,0-53.98,24.16-53.99,53.97c0,11.11,3.43,21.95,9.82,31.05c1.71,2.43,1.13,5.78-1.3,7.5
			c-2.43,1.73-5.8,1.17-7.53-1.26c-0.01-0.01-0.02-0.03-0.03-0.04c-20.57-29.27-13.52-69.67,15.75-90.24s69.67-13.52,90.24,15.75
			s13.52,69.67-15.75,90.24C175.56,207.22,162.56,211.33,149.23,211.33z"/>
		<path class="st3" d="M106.05,189.74H79.06c-2.98,0-5.4-2.42-5.4-5.4c0-2.98,2.42-5.4,5.4-5.4h21.59v-21.59
			c0-2.98,2.42-5.4,5.4-5.4s5.4,2.42,5.4,5.4v26.99C111.45,187.32,109.03,189.74,106.05,189.74z"/>
		<path class="st3" d="M133.04,168.15c-1.43,0.01-2.81-0.55-3.83-1.57c-2.12-2.1-2.13-5.52-0.03-7.63c0.01-0.01,0.02-0.02,0.03-0.03
			l14.63-14.57v-24.78c0-2.98,2.42-5.4,5.4-5.4s5.4,2.42,5.4,5.4v26.99c0.01,1.43-0.55,2.81-1.57,3.83l-16.19,16.19
			C135.85,167.59,134.47,168.16,133.04,168.15z"/>
	</g>
</g>
<g id="Lager_3">
	<path class="st0" d="M225.59,52.5H73.41c-8.75,0-15.91,7.16-15.91,15.91v152.18c0,8.75,7.16,15.91,15.91,15.91h41.5
		c1.4,0,2.69,0.75,3.39,1.96l27.82,48.18c1.51,2.61,5.27,2.61,6.77,0l27.82-48.18c0.7-1.21,1.99-1.96,3.39-1.96h41.5
		c8.75,0,15.91-7.16,15.91-15.91V68.41C241.5,59.66,234.34,52.5,225.59,52.5z"/>
</g>
</svg>
