<svg xmlns="http://www.w3.org/2000/svg" viewBox="0 0 184 236.09"><defs><style>.cls-1{fill:#4990cd;}.cls-2{fill:#fff;}</style></defs><g id="Lager_2" data-name="Lager 2"><g id="Recycle"><path class="cls-1" d="M168.09,0H15.91A16,16,0,0,0,0,15.91V168.09A16,16,0,0,0,15.91,184h41.5a3.92,3.92,0,0,1,3.39,2l27.81,48.17a3.91,3.91,0,0,0,6.78,0L123.2,186a3.92,3.92,0,0,1,3.39-2h41.5A16,16,0,0,0,184,168.09V15.91A16,16,0,0,0,168.09,0Z"/><g id="Layer_2" data-name="Layer 2"><path class="cls-2" d="M157.5,94.69a65.85,65.85,0,0,0-33-57A5.91,5.91,0,1,0,118.61,48a53.83,53.83,0,0,1-23,100.4l9.81-9.81a5.91,5.91,0,1,0-8.37-8.36L78.29,149a5.91,5.91,0,0,0,0,8.36l18.76,18.76a5.91,5.91,0,0,0,8.36-8.36l-7.66-7.66A65.73,65.73,0,0,0,157.5,94.69Z"/><path class="cls-2" d="M78.29,57.9a5.91,5.91,0,0,0,8.36,0l18.76-18.76a5.89,5.89,0,0,0,0-8.36L86.66,12a5.91,5.91,0,1,0-8.37,8.36l8.84,8.84A65.65,65.65,0,0,0,59.25,151.68a5.91,5.91,0,0,0,5.88-10.26A53.82,53.82,0,0,1,86.71,41.12l-8.42,8.42A5.91,5.91,0,0,0,78.29,57.9Z"/></g></g></g></svg>