<?xml version="1.0" encoding="UTF-8" standalone="no"?>
<!-- Generator: Adobe Illustrator 25.0.0, SVG Export Plug-In . SVG Version: 6.00 Build 0)  -->

<svg
   xmlns:dc="http://purl.org/dc/elements/1.1/"
   xmlns:cc="http://creativecommons.org/ns#"
   xmlns:rdf="http://www.w3.org/1999/02/22-rdf-syntax-ns#"
   xmlns:svg="http://www.w3.org/2000/svg"
   xmlns="http://www.w3.org/2000/svg"
   xmlns:sodipodi="http://sodipodi.sourceforge.net/DTD/sodipodi-0.dtd"
   xmlns:inkscape="http://www.inkscape.org/namespaces/inkscape"
   version="1.1"
   id="Recycle"
   x="0px"
   y="0px"
   viewBox="0 0 184.00999 236.0975"
   xml:space="preserve"
   sodipodi:docname="close_the_loop.svg"
   width="184.00999"
   height="236.0975"
   inkscape:version="0.92.4 (5da689c313, 2019-01-14)"><metadata
   id="metadata25"><rdf:RDF><cc:Work
       rdf:about=""><dc:format>image/svg+xml</dc:format><dc:type
         rdf:resource="http://purl.org/dc/dcmitype/StillImage" /></cc:Work></rdf:RDF></metadata><defs
   id="defs23" /><sodipodi:namedview
   pagecolor="#ffffff"
   bordercolor="#666666"
   borderopacity="1"
   objecttolerance="10"
   gridtolerance="10"
   guidetolerance="10"
   inkscape:pageopacity="0"
   inkscape:pageshadow="2"
   inkscape:window-width="640"
   inkscape:window-height="480"
   id="namedview21"
   showgrid="false"
   inkscape:zoom="0.78666667"
   inkscape:cx="92.5"
   inkscape:cy="138.5975"
   inkscape:window-x="0"
   inkscape:window-y="0"
   inkscape:window-maximized="0"
   inkscape:current-layer="Recycle" />
<style
   type="text/css"
   id="style2">
	.st0{fill:#29ABE2;}
	.st1{display:none;}
	.st2{display:inline;}
	.st3{fill:#FFFFFF;}
</style>
<path
   class="st0"
   d="M 168.09,0 H 15.91 C 7.16,0 0,7.16 0,15.91 V 168.09 C 0,176.84 7.16,184 15.91,184 h 41.5 c 1.4,0 2.69,0.75 3.39,1.96 l 27.82,48.18 c 1.51,2.61 5.27,2.61 6.77,0 l 27.82,-48.18 c 0.7,-1.21 1.99,-1.96 3.39,-1.96 h 41.5 c 8.75,0 15.91,-7.16 15.91,-15.91 V 15.91 C 184,7.16 176.84,0 168.09,0 Z"
   id="path4"
   inkscape:connector-curvature="0"
   style="fill:#29abe2" />
<g
   class="st1"
   id="g11"
   style="display:none"
   transform="translate(-57.5,-52.5)">
	<g
   id="Icon-Refresh"
   transform="translate(30,432)"
   class="st2"
   style="display:inline">
		<path
   id="Fill-77"
   class="st3"
   d="m 119.87,-219.77 c -37.11,0 -67.39,-30.27 -67.39,-67.39 0,-16.28 5.86,-32.23 16.93,-44.6 l 7.16,6.51 c -9.44,10.42 -14.32,24.09 -14.32,38.09 0,31.9 25.72,57.62 57.62,57.62 8.46,0 16.6,-1.63 24.09,-5.21 l 3.91,8.79 c -8.79,4.23 -18.23,6.19 -28,6.19"
   inkscape:connector-curvature="0"
   style="fill:#ffffff" />
		<path
   id="Fill-78"
   class="st3"
   d="m 170,-242.24 -7.16,-6.51 c 9.44,-10.42 14.65,-24.09 14.65,-38.41 0,-31.9 -25.72,-57.62 -57.62,-57.62 -8.46,0 -16.6,1.63 -24.09,5.21 l -3.91,-8.79 c 8.79,-3.91 18.23,-6.19 28,-6.19 37.11,0 67.39,30.27 67.39,67.39 0,16.6 -6.19,32.55 -17.26,44.92"
   inkscape:connector-curvature="0"
   style="fill:#ffffff" />
		<polyline
   id="Fill-79"
   class="st3"
   points="83.41,-292.37 72.99,-292.37 72.99,-323.62 41.74,-323.62 41.74,-334.04     83.41,-334.04 83.41,-292.37   "
   style="fill:#ffffff" />
		<polyline
   id="Fill-80"
   class="st3"
   points="198,-240.28 156.33,-240.28 156.33,-281.95 166.75,-281.95 166.75,-250.7 198,-250.7     198,-240.28   "
   style="fill:#ffffff" />
	</g>
</g>
<g
   id="Layer_2"
   transform="translate(-57.5,-52.5)">
	<g
   id="g17">
		<path
   class="st3"
   d="m 215,147.19 c 0,-23.45 -12.65,-45.28 -33,-56.96 -2.83,-1.63 -6.44,-0.65 -8.07,2.18 -1.63,2.83 -0.65,6.44 2.18,8.07 16.7,9.59 27.07,27.48 27.07,46.71 0,28.41 -22.14,51.75 -50.07,53.69 l 9.81,-9.81 c 2.31,-2.31 2.31,-6.05 0,-8.36 -2.31,-2.31 -6.05,-2.31 -8.36,0 l -18.76,18.76 c -1.11,1.11 -1.73,2.61 -1.73,4.18 0,1.57 0.62,3.07 1.73,4.18 l 18.76,18.77 c 1.15,1.15 2.67,1.73 4.18,1.73 1.51,0 3.03,-0.58 4.18,-1.73 2.31,-2.31 2.31,-6.05 0,-8.36 l -7.66,-7.66 C 188.7,209.58 215,181.4 215,147.19 Z"
   id="path13"
   inkscape:connector-curvature="0"
   style="fill:#ffffff" />
		<path
   class="st3"
   d="m 135.79,110.4 c 1.15,1.15 2.67,1.73 4.18,1.73 1.51,0 3.03,-0.58 4.18,-1.73 l 18.76,-18.76 c 1.11,-1.11 1.73,-2.61 1.73,-4.18 0,-1.57 -0.62,-3.07 -1.73,-4.18 L 144.15,64.52 c -2.31,-2.31 -6.05,-2.31 -8.36,0 -2.31,2.31 -2.31,6.05 0,8.36 l 8.84,8.84 c -34,2.43 -60.92,30.86 -60.92,65.48 0,23.47 12.66,45.3 33.04,56.99 0.93,0.53 1.94,0.78 2.93,0.78 2.05,0 4.04,-1.07 5.13,-2.97 1.63,-2.83 0.64,-6.44 -2.19,-8.07 -16.71,-9.58 -27.09,-27.49 -27.09,-46.73 0,-27.94 21.4,-50.98 48.68,-53.57 l -8.42,8.42 c -2.31,2.3 -2.31,6.04 0,8.35 z"
   id="path15"
   inkscape:connector-curvature="0"
   style="fill:#ffffff" />
	</g>
</g>
</svg>