<?xml version="1.0" encoding="UTF-8" standalone="no"?>
<!-- Generator: Adobe Illustrator 25.0.0, SVG Export Plug-In . SVG Version: 6.00 Build 0)  -->

<svg
   xmlns:dc="http://purl.org/dc/elements/1.1/"
   xmlns:cc="http://creativecommons.org/ns#"
   xmlns:rdf="http://www.w3.org/1999/02/22-rdf-syntax-ns#"
   xmlns:svg="http://www.w3.org/2000/svg"
   xmlns="http://www.w3.org/2000/svg"
   xmlns:sodipodi="http://sodipodi.sourceforge.net/DTD/sodipodi-0.dtd"
   xmlns:inkscape="http://www.inkscape.org/namespaces/inkscape"
   version="1.1"
   x="0px"
   y="0px"
   viewBox="0 0 184.00999 236.0975"
   xml:space="preserve"
   id="svg44"
   sodipodi:docname="enablers.svg"
   width="184.00999"
   height="236.0975"
   inkscape:version="0.92.4 (5da689c313, 2019-01-14)"><metadata
   id="metadata50"><rdf:RDF><cc:Work
       rdf:about=""><dc:format>image/svg+xml</dc:format><dc:type
         rdf:resource="http://purl.org/dc/dcmitype/StillImage" /></cc:Work></rdf:RDF></metadata><defs
   id="defs48" /><sodipodi:namedview
   pagecolor="#ffffff"
   bordercolor="#666666"
   borderopacity="1"
   objecttolerance="10"
   gridtolerance="10"
   guidetolerance="10"
   inkscape:pageopacity="0"
   inkscape:pageshadow="2"
   inkscape:window-width="1508"
   inkscape:window-height="874"
   id="namedview46"
   showgrid="false"
   inkscape:zoom="0.78666667"
   inkscape:cx="92.5"
   inkscape:cy="138.5975"
   inkscape:window-x="0"
   inkscape:window-y="0"
   inkscape:window-maximized="0"
   inkscape:current-layer="Lager_4" />
<style
   type="text/css"
   id="style2">
	.st0{fill:#29ABE2;}
	.st1{display:none;}
	.st2{display:inline;}
	.st3{fill:#FFFFFF;}
	.st4{fill:#F15A24;}
	.st5{fill:#009245;}
	.st6{fill:#9E005D;}
	.st7{fill:#FFFFFF;stroke:#FFFFFF;stroke-width:2;stroke-miterlimit:10;}
</style>
<g
   id="Recycle"
   transform="translate(-57.5,-52.5)">
	<path
   class="st0"
   d="M 225.59,52.5 H 73.41 c -8.75,0 -15.91,7.16 -15.91,15.91 v 152.18 c 0,8.75 7.16,15.91 15.91,15.91 h 41.5 c 1.4,0 2.69,0.75 3.39,1.96 l 27.82,48.18 c 1.51,2.61 5.27,2.61 6.77,0 l 27.82,-48.18 c 0.7,-1.21 1.99,-1.96 3.39,-1.96 h 41.5 c 8.75,0 15.91,-7.16 15.91,-15.91 V 68.41 C 241.5,59.66 234.34,52.5 225.59,52.5 Z"
   id="path4"
   inkscape:connector-curvature="0"
   style="fill:#29abe2" />
	<g
   class="st1"
   id="g11"
   style="display:none">
		<g
   id="Icon-Refresh"
   transform="translate(30,432)"
   class="st2"
   style="display:inline">
			<path
   id="Fill-77"
   class="st3"
   d="m 119.87,-219.77 c -37.11,0 -67.39,-30.27 -67.39,-67.39 0,-16.28 5.86,-32.23 16.93,-44.6 l 7.16,6.51 c -9.44,10.42 -14.32,24.09 -14.32,38.09 0,31.9 25.72,57.62 57.62,57.62 8.46,0 16.6,-1.63 24.09,-5.21 l 3.91,8.79 c -8.79,4.23 -18.23,6.19 -28,6.19"
   inkscape:connector-curvature="0"
   style="fill:#ffffff" />
			<path
   id="Fill-78"
   class="st3"
   d="m 170,-242.24 -7.16,-6.51 c 9.44,-10.42 14.65,-24.09 14.65,-38.41 0,-31.9 -25.72,-57.62 -57.62,-57.62 -8.46,0 -16.6,1.63 -24.09,5.21 l -3.91,-8.79 c 8.79,-3.91 18.23,-6.19 28,-6.19 37.11,0 67.39,30.27 67.39,67.39 0,16.6 -6.19,32.55 -17.26,44.92"
   inkscape:connector-curvature="0"
   style="fill:#ffffff" />
			<polyline
   id="Fill-79"
   class="st3"
   points="83.41,-292.37 72.99,-292.37 72.99,-323.62 41.74,-323.62 41.74,-334.04      83.41,-334.04 83.41,-292.37    "
   style="fill:#ffffff" />
			<polyline
   id="Fill-80"
   class="st3"
   points="198,-240.28 156.33,-240.28 156.33,-281.95 166.75,-281.95 166.75,-250.7 198,-250.7      198,-240.28    "
   style="fill:#ffffff" />
		</g>
	</g>
	<g
   id="Layer_2">
		<g
   id="g17">
			<path
   class="st3"
   d="m 215,147.19 c 0,-23.45 -12.65,-45.28 -33,-56.96 -2.83,-1.63 -6.44,-0.65 -8.07,2.18 -1.63,2.83 -0.65,6.44 2.18,8.07 16.7,9.59 27.07,27.48 27.07,46.71 0,28.41 -22.14,51.75 -50.07,53.69 l 9.81,-9.81 c 2.31,-2.31 2.31,-6.05 0,-8.36 -2.31,-2.31 -6.05,-2.31 -8.36,0 l -18.76,18.76 c -1.11,1.11 -1.73,2.61 -1.73,4.18 0,1.57 0.62,3.07 1.73,4.18 l 18.76,18.77 c 1.15,1.15 2.67,1.73 4.18,1.73 1.51,0 3.03,-0.58 4.18,-1.73 2.31,-2.31 2.31,-6.05 0,-8.36 l -7.66,-7.66 C 188.7,209.58 215,181.4 215,147.19 Z"
   id="path13"
   inkscape:connector-curvature="0"
   style="fill:#ffffff" />
			<path
   class="st3"
   d="m 135.79,110.4 c 1.15,1.15 2.67,1.73 4.18,1.73 1.51,0 3.03,-0.58 4.18,-1.73 l 18.76,-18.76 c 1.11,-1.11 1.73,-2.61 1.73,-4.18 0,-1.57 -0.62,-3.07 -1.73,-4.18 L 144.15,64.52 c -2.31,-2.31 -6.05,-2.31 -8.36,0 -2.31,2.31 -2.31,6.05 0,8.36 l 8.84,8.84 c -34,2.43 -60.92,30.86 -60.92,65.48 0,23.47 12.66,45.3 33.04,56.99 0.93,0.53 1.94,0.78 2.93,0.78 2.05,0 4.04,-1.07 5.13,-2.97 1.63,-2.83 0.64,-6.44 -2.19,-8.07 -16.71,-9.58 -27.09,-27.49 -27.09,-46.73 0,-27.94 21.4,-50.98 48.68,-53.57 l -8.42,8.42 c -2.31,2.3 -2.31,6.04 0,8.35 z"
   id="path15"
   inkscape:connector-curvature="0"
   style="fill:#ffffff" />
		</g>
	</g>
</g>
<g
   id="Slow_down"
   transform="translate(-57.5,-52.5)">
	<path
   class="st4"
   d="M 225.59,52.5 H 73.41 c -8.75,0 -15.91,7.16 -15.91,15.91 v 152.18 c 0,8.75 7.16,15.91 15.91,15.91 h 41.5 c 1.4,0 2.69,0.75 3.39,1.96 l 27.82,48.18 c 1.51,2.61 5.27,2.61 6.77,0 l 27.82,-48.18 c 0.7,-1.21 1.99,-1.96 3.39,-1.96 h 41.5 c 8.75,0 15.91,-7.16 15.91,-15.91 V 68.41 C 241.5,59.66 234.34,52.5 225.59,52.5 Z"
   id="path21"
   inkscape:connector-curvature="0"
   style="fill:#f15a24" />
	<g
   id="Layer_2_1_">
		<path
   class="st3"
   d="m 149.23,211.33 c -2.98,0 -5.4,-2.42 -5.4,-5.4 0,-2.98 2.42,-5.4 5.4,-5.4 29.81,0 53.98,-24.16 53.99,-53.97 0,-29.81 -24.16,-53.98 -53.97,-53.99 -29.81,0 -53.98,24.16 -53.99,53.97 0,11.11 3.43,21.95 9.82,31.05 1.71,2.43 1.13,5.78 -1.3,7.5 -2.43,1.73 -5.8,1.17 -7.53,-1.26 -0.01,-0.01 -0.02,-0.03 -0.03,-0.04 -20.57,-29.27 -13.52,-69.67 15.75,-90.24 29.27,-20.57 69.67,-13.52 90.24,15.75 20.57,29.27 13.52,69.67 -15.75,90.24 -10.9,7.68 -23.9,11.79 -37.23,11.79 z"
   id="path23"
   inkscape:connector-curvature="0"
   style="fill:#ffffff" />
		<path
   class="st3"
   d="M 106.05,189.74 H 79.06 c -2.98,0 -5.4,-2.42 -5.4,-5.4 0,-2.98 2.42,-5.4 5.4,-5.4 h 21.59 v -21.59 c 0,-2.98 2.42,-5.4 5.4,-5.4 2.98,0 5.4,2.42 5.4,5.4 v 26.99 c 0,2.98 -2.42,5.4 -5.4,5.4 z"
   id="path25"
   inkscape:connector-curvature="0"
   style="fill:#ffffff" />
		<path
   class="st3"
   d="m 133.04,168.15 c -1.43,0.01 -2.81,-0.55 -3.83,-1.57 -2.12,-2.1 -2.13,-5.52 -0.03,-7.63 0.01,-0.01 0.02,-0.02 0.03,-0.03 l 14.63,-14.57 v -24.78 c 0,-2.98 2.42,-5.4 5.4,-5.4 2.98,0 5.4,2.42 5.4,5.4 v 26.99 c 0.01,1.43 -0.55,2.81 -1.57,3.83 l -16.19,16.19 c -1.03,1.01 -2.41,1.58 -3.84,1.57 z"
   id="path27"
   inkscape:connector-curvature="0"
   style="fill:#ffffff" />
	</g>
</g>
<g
   id="Lager_3"
   transform="translate(-57.5,-52.5)">
	<path
   class="st5"
   d="M 225.59,52.5 H 73.41 c -8.75,0 -15.91,7.16 -15.91,15.91 v 152.18 c 0,8.75 7.16,15.91 15.91,15.91 h 41.5 c 1.4,0 2.69,0.75 3.39,1.96 l 27.82,48.18 c 1.51,2.61 5.27,2.61 6.77,0 l 27.82,-48.18 c 0.7,-1.21 1.99,-1.96 3.39,-1.96 h 41.5 c 8.75,0 15.91,-7.16 15.91,-15.91 V 68.41 C 241.5,59.66 234.34,52.5 225.59,52.5 Z"
   id="path31"
   inkscape:connector-curvature="0"
   style="fill:#009245" />
	<g
   id="Layer_2_2_">
		<path
   class="st3"
   d="m 135.72,205.77 c -0.9,0 -1.77,-0.25 -2.53,-0.72 -1.4,-0.88 -2.25,-2.41 -2.25,-4.06 V 154.98 L 94.02,114 C 90.07,109.6 87.89,103.89 87.9,97.98 v -2.2 C 87.9,93.14 90.04,91 92.68,91 h 114.77 c 2.64,0 4.78,2.14 4.78,4.78 v 2.2 c 0.01,5.91 -2.17,11.62 -6.12,16.02 l -36.92,40.98 v 25.73 c 0.01,5.45 -3.06,10.43 -7.94,12.86 l -23.39,11.67 c -0.66,0.35 -1.39,0.53 -2.14,0.53 z M 97.7,100.56 c 0.47,2.62 1.67,5.05 3.44,7.03 l 38.26,42.37 c 0.75,0.9 1.14,2.04 1.1,3.2 v 40.08 l 16.5,-8.23 c 1.62,-0.82 2.64,-2.49 2.63,-4.3 v -27.55 c 0,-1.19 0.45,-2.33 1.24,-3.2 l 38.26,-42.37 c 1.81,-1.97 3.04,-4.4 3.54,-7.03 z"
   id="path33"
   inkscape:connector-curvature="0"
   style="fill:#ffffff" />
	</g>
</g>
<g
   id="Lager_4"
   transform="translate(-57.5,-52.5)">
	<path
   class="st6"
   d="M 225.59,52.5 H 73.41 c -8.75,0 -15.91,7.16 -15.91,15.91 v 152.18 c 0,8.75 7.16,15.91 15.91,15.91 h 41.5 c 1.4,0 2.69,0.75 3.39,1.96 l 27.82,48.18 c 1.51,2.61 5.27,2.61 6.77,0 l 27.82,-48.18 c 0.7,-1.21 1.99,-1.96 3.39,-1.96 h 41.5 c 8.75,0 15.91,-7.16 15.91,-15.91 V 68.41 C 241.5,59.66 234.34,52.5 225.59,52.5 Z"
   id="path37"
   inkscape:connector-curvature="0"
   style="fill:#e8003f;fill-opacity:1" />
	<path
   class="st7"
   d="M 208.69,193.22 198.1,178.18 c -3.03,-4.16 -7.05,-7.5 -11.71,-9.7 l -21.01,-9.93 c -7.73,-3.66 -16.38,-4.96 -24.84,-3.72 l -23.51,3.4 c -0.51,0.07 -1.01,0.21 -1.5,0.39 l -18.04,-9.59 c -3.57,-1.89 -8,-0.54 -9.89,3.03 -1.64,3.1 -0.86,6.93 1.88,9.13 l 28.5,22.85 c 8.12,6.54 18.49,9.61 28.86,8.55 l 23.54,-2.35 4.26,5.05 c 0.6,0.71 1.66,0.8 2.37,0.2 0.71,-0.6 0.8,-1.66 0.2,-2.37 l -4.85,-5.72 c -0.35,-0.43 -0.9,-0.65 -1.45,-0.59 l -24.42,2.44 c -9.49,0.97 -18.98,-1.84 -26.41,-7.83 L 91.57,158.57 c -1.7,-1.37 -1.97,-3.86 -0.6,-5.56 0.07,-0.09 0.14,-0.17 0.22,-0.25 1.23,-1.27 3.15,-1.58 4.72,-0.76 l 16.63,8.85 c -2.37,3.03 -1.84,7.4 1.19,9.77 0.9,0.7 1.96,1.18 3.08,1.37 l 37.04,4.83 c 0.92,0.15 1.79,-0.47 1.94,-1.39 0.15,-0.92 -0.47,-1.79 -1.39,-1.94 -0.04,-0.01 -0.07,-0.01 -0.11,-0.01 l -36.94,-4.81 c -1.95,-0.38 -3.23,-2.27 -2.85,-4.22 0.19,-1 0.8,-1.87 1.67,-2.4 0.1,-0.04 0.19,-0.09 0.28,-0.15 0.34,-0.17 0.7,-0.28 1.07,-0.34 l 23.5,-3.4 c 7.82,-1.15 15.79,0.05 22.93,3.43 l 21.02,9.93 c 4.14,1.96 7.71,4.92 10.41,8.62 l 10.58,15.02 c 0.32,0.45 0.83,0.71 1.38,0.71 0.35,0 0.68,-0.11 0.97,-0.31 0.74,-0.53 0.92,-1.58 0.38,-2.34 0,0 0,0 0,0 z"
   id="path39"
   inkscape:connector-curvature="0"
   style="fill:#ffffff;stroke:#ffffff;stroke-width:2;stroke-miterlimit:10" />
	<path
   class="st7"
   d="m 97.63,106.67 c 3.03,4.16 7.06,7.5 11.71,9.7 l 21.01,9.93 c 5.8,2.75 12.14,4.18 18.57,4.18 2.1,0 4.2,-0.15 6.29,-0.45 l 23.5,-3.4 c 0.51,-0.07 1.01,-0.21 1.5,-0.39 l 18.04,9.61 c 1.05,0.56 2.23,0.85 3.42,0.85 4.04,0.01 7.32,-3.25 7.33,-7.29 0.01,-2.23 -1,-4.33 -2.74,-5.72 l -28.49,-22.86 c -8.12,-6.55 -18.49,-9.62 -28.87,-8.55 l -23.54,2.36 -4.25,-5.05 c -0.62,-0.69 -1.69,-0.74 -2.38,-0.12 -0.65,0.59 -0.74,1.59 -0.2,2.29 l 4.85,5.72 c 0.35,0.43 0.9,0.65 1.45,0.59 l 24.41,-2.44 c 9.49,-0.97 18.98,1.84 26.42,7.83 l 28.5,22.85 c 1.7,1.36 1.98,3.84 0.62,5.54 -0.07,0.09 -0.15,0.18 -0.23,0.26 -1.23,1.27 -3.15,1.58 -4.72,0.76 l -16.63,-8.85 c 2.37,-3.03 1.84,-7.4 -1.19,-9.78 -0.9,-0.7 -1.95,-1.17 -3.08,-1.37 l -37.03,-4.83 c -0.93,-0.09 -1.75,0.59 -1.84,1.51 -0.09,0.88 0.53,1.68 1.4,1.83 l 36.94,4.82 c 1.95,0.38 3.23,2.27 2.85,4.22 -0.19,0.99 -0.79,1.86 -1.66,2.39 -0.11,0.05 -0.21,0.11 -0.31,0.17 -0.33,0.16 -0.69,0.27 -1.05,0.32 l -23.51,3.4 c -7.82,1.14 -15.79,-0.05 -22.93,-3.43 l -21.01,-9.93 c -4.14,-1.96 -7.72,-4.92 -10.41,-8.62 L 89.79,89.69 c -0.53,-0.76 -1.58,-0.94 -2.34,-0.41 -0.76,0.53 -0.94,1.58 -0.41,2.34 z"
   id="path41"
   inkscape:connector-curvature="0"
   style="fill:#ffffff;stroke:#ffffff;stroke-width:2;stroke-miterlimit:10" />
</g>
</svg>