<?xml version="1.0" encoding="UTF-8" standalone="no"?>
<svg
   xmlns:dc="http://purl.org/dc/elements/1.1/"
   xmlns:cc="http://creativecommons.org/ns#"
   xmlns:rdf="http://www.w3.org/1999/02/22-rdf-syntax-ns#"
   xmlns:svg="http://www.w3.org/2000/svg"
   xmlns="http://www.w3.org/2000/svg"
   xmlns:sodipodi="http://sodipodi.sourceforge.net/DTD/sodipodi-0.dtd"
   xmlns:inkscape="http://www.inkscape.org/namespaces/inkscape"
   viewBox="0 0 184 236.09"
   version="1.1"
   id="svg14"
   sodipodi:docname="Resurs 1.svg"
   inkscape:version="0.92.4 (5da689c313, 2019-01-14)">
  <metadata
     id="metadata18">
    <rdf:RDF>
      <cc:Work
         rdf:about="">
        <dc:format>image/svg+xml</dc:format>
        <dc:type
           rdf:resource="http://purl.org/dc/dcmitype/StillImage" />
      </cc:Work>
    </rdf:RDF>
  </metadata>
  <sodipodi:namedview
     pagecolor="#ffffff"
     bordercolor="#666666"
     borderopacity="1"
     objecttolerance="10"
     gridtolerance="10"
     guidetolerance="10"
     inkscape:pageopacity="0"
     inkscape:pageshadow="2"
     inkscape:window-width="1452"
     inkscape:window-height="886"
     id="namedview16"
     showgrid="false"
     inkscape:zoom="0.9996188"
     inkscape:cx="-70.561968"
     inkscape:cy="118.045"
     inkscape:window-x="0"
     inkscape:window-y="0"
     inkscape:window-maximized="0"
     inkscape:current-layer="Lager_4" />
  <defs
     id="defs4">
    <style
       id="style2">.cls-1{fill:#9e005d;}.cls-2{fill:#fff;stroke:#fff;stroke-miterlimit:10;stroke-width:2px;}</style>
  </defs>
  <g
     id="Lager_2"
     data-name="Lager 2">
    <g
       id="Lager_4"
       data-name="Lager 4">
      <path
         class="cls-1"
         d="M168.09,0H15.91A16,16,0,0,0,0,15.91V168.09A16,16,0,0,0,15.91,184h41.5a3.92,3.92,0,0,1,3.39,2l27.81,48.17a3.91,3.91,0,0,0,6.78,0L123.2,186a3.92,3.92,0,0,1,3.39-2h41.5A16,16,0,0,0,184,168.09V15.91A16,16,0,0,0,168.09,0Z"
         id="path6"
         style="fill:#f7004b;fill-opacity:1" />
      <path
         class="cls-2"
         d="M151.19,140.72l-10.6-15a30.68,30.68,0,0,0-11.7-9.7l-21-9.93A43.37,43.37,0,0,0,83,102.32l-23.51,3.41a6.63,6.63,0,0,0-1.5.39L40,96.53a7.31,7.31,0,0,0-8,12.16l28.5,22.84a39.56,39.56,0,0,0,28.85,8.55l23.55-2.35,4.26,5a1.68,1.68,0,0,0,2.57-2.17l-4.85-5.72a1.64,1.64,0,0,0-1.45-.59L89,136.73a36.24,36.24,0,0,1-26.41-7.82L34.08,106.06a4,4,0,0,1-.6-5.56,2.52,2.52,0,0,1,.21-.25,4,4,0,0,1,4.72-.76L55,108.34a7,7,0,0,0,4.26,11.15l37,4.83a1.68,1.68,0,1,0,.55-3.32l-.11,0-36.94-4.8a3.61,3.61,0,0,1-1.18-6.63,1.51,1.51,0,0,0,.28-.15,3.71,3.71,0,0,1,1.07-.34l23.5-3.4a40,40,0,0,1,22.94,3.43l21,9.93a27.31,27.31,0,0,1,10.41,8.62l10.58,15a1.68,1.68,0,1,0,2.74-1.93Z"
         id="path8" />
      <path
         class="cls-2"
         d="M40.13,54.17a30.79,30.79,0,0,0,11.71,9.7l21,9.93A43.33,43.33,0,0,0,91.41,78a44,44,0,0,0,6.29-.45l23.5-3.4a6.91,6.91,0,0,0,1.5-.4l18,9.61a7.31,7.31,0,0,0,8-12.16l-28.5-22.86a39.49,39.49,0,0,0-28.86-8.55L67.85,42.12l-4.26-5A1.68,1.68,0,0,0,61,39.25L65.86,45a1.64,1.64,0,0,0,1.45.59l24.42-2.45a36.25,36.25,0,0,1,26.41,7.83l28.5,22.85a4,4,0,0,1,.62,5.55c-.07.09-.15.17-.23.26a4,4,0,0,1-4.71.75l-16.64-8.84a7,7,0,0,0-1.18-9.78,7,7,0,0,0-3.08-1.37l-37-4.84A1.69,1.69,0,0,0,84,58.86l36.93,4.82a3.61,3.61,0,0,1,1.2,6.61,3.07,3.07,0,0,0-.31.17,3.57,3.57,0,0,1-1,.33l-23.51,3.4a40.06,40.06,0,0,1-22.93-3.43l-21-9.93a27.31,27.31,0,0,1-10.41-8.62l-10.57-15a1.68,1.68,0,1,0-2.74,1.94Z"
         id="path10" />
    </g>
  </g>
</svg>
