<svg xmlns="http://www.w3.org/2000/svg" viewBox="0 0 184 236.09"><defs><style>.cls-1{fill:#93c01f;}.cls-2{fill:#fff;}</style></defs><g id="Lager_2" data-name="Lager 2"><g id="Lager_4" data-name="Lager 4"><path class="cls-1" d="M168.09,0H15.91A16,16,0,0,0,0,15.91V168.09A16,16,0,0,0,15.91,184h41.5a3.92,3.92,0,0,1,3.39,2l27.81,48.17a3.91,3.91,0,0,0,6.78,0L123.2,186a3.92,3.92,0,0,1,3.39-2h41.5A16,16,0,0,0,184,168.09V15.91A16,16,0,0,0,168.09,0Z"/><path class="cls-2" d="M143.33,90.41a26.89,26.89,0,0,1,14.42,8,21.11,21.11,0,0,1,5.75,14.3v9a2.55,2.55,0,0,1-2.54,2.54H104.23a2.55,2.55,0,0,1-2.54-2.54v-9a21.16,21.16,0,0,1,5.75-14.3,27,27,0,0,1,14.42-8,2.61,2.61,0,0,1,1.81.3,18.22,18.22,0,0,0,4.22,1.59l.13,0a20.48,20.48,0,0,0,4.59.52,19.91,19.91,0,0,0,4.73-.56,18.49,18.49,0,0,0,4.3-1.64,2.56,2.56,0,0,1,1.7-.25h0ZM154,101.85a21.74,21.74,0,0,0-10.87-6.27,24.57,24.57,0,0,1-4.64,1.66,25,25,0,0,1-11.7,0l-.14,0A24,24,0,0,1,122,95.58a21.81,21.81,0,0,0-10.87,6.27,16.12,16.12,0,0,0-4.4,10.89v6.46H158.4v-6.46a16.12,16.12,0,0,0-4.4-10.89Zm-21.43-48a18.68,18.68,0,0,1,13.25,5.5h0a18.72,18.72,0,0,1,0,26.49h0a18.72,18.72,0,0,1-26.51,0l-.13-.13a18.74,18.74,0,0,1,.13-26.37h0a18.72,18.72,0,0,1,13.26-5.5ZM142.25,63a13.68,13.68,0,0,0-19.33,0v0a13.72,13.72,0,0,0-.11,19.23l.12.11A13.67,13.67,0,0,0,142.25,63ZM62.82,90.41a26.9,26.9,0,0,1,14.41,8A21.11,21.11,0,0,1,83,112.74v9a2.54,2.54,0,0,1-2.53,2.54H23.72a2.54,2.54,0,0,1-2.54-2.54v-9a21.11,21.11,0,0,1,5.75-14.3,27,27,0,0,1,14.41-8,2.6,2.6,0,0,1,1.81.3,18.22,18.22,0,0,0,4.22,1.59l.13,0a20.57,20.57,0,0,0,4.6.52,19.82,19.82,0,0,0,4.72-.56,18.32,18.32,0,0,0,4.3-1.64,2.58,2.58,0,0,1,1.71-.25h0Zm10.67,11.44a21.74,21.74,0,0,0-10.87-6.27A24.47,24.47,0,0,1,58,97.24a25,25,0,0,1-11.71,0l-.14,0a23.7,23.7,0,0,1-4.62-1.66,21.89,21.89,0,0,0-10.88,6.27,16.12,16.12,0,0,0-4.4,10.89v6.46H77.89v-6.46a16.08,16.08,0,0,0-4.41-10.89Zm-21.43-48a18.64,18.64,0,0,1,13.25,5.5h0a18.7,18.7,0,0,1,0,26.49h0a18.71,18.71,0,0,1-26.5,0l-.13-.13a18.71,18.71,0,0,1,.13-26.37h0a18.68,18.68,0,0,1,13.25-5.5ZM61.74,63A13.69,13.69,0,0,0,42.4,63v0a13.7,13.7,0,0,0-.1,19.23l.11.11A13.68,13.68,0,0,0,61.74,63Z"/><path class="cls-2" d="M145.2,132.17h.17l.1,0h.26l.05,0h.38l0,0h0l0,0h0l0,0h0l0,0h0l0,0h0l0,0h0l0,0h0l0,0,0,0h0l0,0h0l0,0h0l0,0h0l0,0h0l0,0h0l0,0v0l0,0v0l0,0v0l0,0v0l0,0v.07l0,0v0l0,0v.31l0,.05v0l0,.11V134l0,.11v0h0v0h0l0,.28v18.13a2.27,2.27,0,1,1-4.53,0v-12.2A70.25,70.25,0,0,1,38,135.89,2.27,2.27,0,1,1,41.46,133a65.68,65.68,0,0,0,98.48,3.7H126.83a2.27,2.27,0,0,1,0-4.53h18.36Z"/><path class="cls-2" d="M57.83,42.47a2.27,2.27,0,1,1,0,4.53H39.31l-.11,0H39l-.05,0h-.33l0,0h0l0,0h0l0,0h0l0,0h0l0,0h0l0,0h0l0,0h0l0,0h0l0,0,0,0h0l0,0h0l0,0h0l0,0h0l0,0h0l0,0h0l0,0v0l0,0v0l0,0v0l0,0v0l0,0v0l0,0v0l0,0v-.36l0,0V45.4l0-.11V45h0v0h0l0-.28V26.57a2.27,2.27,0,1,1,4.53,0v12.2a70.25,70.25,0,0,1,104.75,4.5,2.26,2.26,0,1,1-3.5,2.87,66.23,66.23,0,0,0-22.76-17.82A65.64,65.64,0,0,0,44.74,42.44h13.1Z"/></g></g></svg>