<svg xmlns="http://www.w3.org/2000/svg" viewBox="0 0 184 236.09"><defs><style>.cls-1{fill:#93c01f;}.cls-2{fill:#fff;stroke:#fff;stroke-miterlimit:10;stroke-width:2px;}</style></defs><g id="Lager_2" data-name="Lager 2"><g id="Lager_4" data-name="Lager 4"><path class="cls-1" d="M168.09,0H15.91A16,16,0,0,0,0,15.91V168.09A16,16,0,0,0,15.91,184h41.5a3.92,3.92,0,0,1,3.39,2l27.81,48.17a3.91,3.91,0,0,0,6.78,0L123.2,186a3.92,3.92,0,0,1,3.39-2h41.5A16,16,0,0,0,184,168.09V15.91A16,16,0,0,0,168.09,0Z"/><path class="cls-2" d="M29.81,140.87l10.55-15.14A30.73,30.73,0,0,1,52,116l20.92-10a42.85,42.85,0,0,1,24.75-3.75l23.41,3.43a6.42,6.42,0,0,1,1.49.39l18-9.66a7.24,7.24,0,0,1,9.85,3,7.42,7.42,0,0,1-1.87,9.2l-28.38,23a39.11,39.11,0,0,1-28.74,8.61L68,137.86l-4.24,5.08a1.66,1.66,0,0,1-2.37.2,1.71,1.71,0,0,1-.19-2.39L66,135a1.65,1.65,0,0,1,1.45-.59l24.31,2.46A35.79,35.79,0,0,0,118.05,129l28.4-23a4,4,0,0,0,.6-5.6c-.07-.08-.14-.17-.22-.25a3.94,3.94,0,0,0-4.7-.76l-16.56,8.91a7.06,7.06,0,0,1-1.18,9.84,6.88,6.88,0,0,1-3.06,1.39l-36.89,4.87a1.7,1.7,0,0,1-.55-3.35l.11,0,36.79-4.84a3.64,3.64,0,0,0,1.17-6.67,1.43,1.43,0,0,1-.27-.15,3.43,3.43,0,0,0-1.07-.34l-23.41-3.43A39.38,39.38,0,0,0,74.37,109L53.44,119a27.32,27.32,0,0,0-10.36,8.69L32.54,142.82a1.67,1.67,0,0,1-1.37.72,1.64,1.64,0,0,1-1-.31,1.7,1.7,0,0,1-.4-2.36Z"/><path class="cls-2" d="M140.38,54.17a30.71,30.71,0,0,1-11.66,9.7L107.8,73.8A43,43,0,0,1,89.31,78a43.59,43.59,0,0,1-6.25-.45l-23.41-3.4a7,7,0,0,1-1.49-.4l-18,9.61A7.29,7.29,0,0,1,29.5,76.9a7.31,7.31,0,0,1,2.73-5.72L60.6,48.32a39.21,39.21,0,0,1,28.74-8.55l23.44,2.35,4.24-5a1.67,1.67,0,0,1,2.37-.12,1.7,1.7,0,0,1,.19,2.29L114.76,45a1.64,1.64,0,0,1-1.45.59L89,43.11a36,36,0,0,0-26.3,7.83L34.32,73.79a4,4,0,0,0-.62,5.55l.23.26a4,4,0,0,0,4.7.75l16.56-8.84a7,7,0,0,1,4.25-11.15l36.87-4.84a1.69,1.69,0,0,1,.44,3.34L60,63.68a3.61,3.61,0,0,0-1.19,6.61,3.07,3.07,0,0,1,.31.17,3.48,3.48,0,0,0,1,.33l23.4,3.4a39.76,39.76,0,0,0,22.84-3.43l20.92-9.93a27.41,27.41,0,0,0,10.37-8.62l10.51-15a1.66,1.66,0,0,1,2.33-.4,1.68,1.68,0,0,1,.41,2.34Z"/></g></g></svg>