<?xml version="1.0" encoding="UTF-8" standalone="no"?>
<!DOCTYPE svg PUBLIC "-//W3C//DTD SVG 1.1//EN" "http://www.w3.org/Graphics/SVG/1.1/DTD/svg11.dtd">
<svg version="1.1" xmlns="http://www.w3.org/2000/svg" xmlns:xlink="http://www.w3.org/1999/xlink" preserveAspectRatio="xMidYMid meet" viewBox="0 0 640 640" width="640" height="640"><defs><path d="M437.57 467.09C386.94 549.45 335.58 618.94 335.07 619.64C334.07 621 329.04 627.78 320 640C310.96 627.78 305.93 621 304.93 619.64C304.42 618.94 253.06 549.45 202.43 467.09C133.2 354.46 98.09 271.97 98.09 221.91C98.09 99.56 197.63 0 320 0C442.37 0 541.91 99.56 541.91 221.91C541.91 271.97 506.81 354.46 437.57 467.09Z" id="f3cebfQfPr"></path><path d="M320 345.38C250.02 345.38 193.1 288.45 193.1 218.47C193.1 148.51 250.02 91.58 320 91.58C389.98 91.58 446.9 148.51 446.9 218.47C446.9 288.45 389.98 345.38 320 345.38Z" id="a8yDXDlV1"></path><path d="M437.57 467.09C386.94 549.45 335.58 618.94 335.07 619.64C334.07 621 329.04 627.78 320 640C320 256 320 42.67 320 0C442.37 0 541.91 99.56 541.91 221.91C541.91 271.97 506.81 354.46 437.57 467.09Z" id="exWjYffS1"></path><path d="M320 345.38C320 320 320 116.96 320 91.58C389.98 91.58 446.9 148.51 446.9 218.47C446.9 288.45 389.98 345.38 320 345.38Z" id="fLCKll5Fj"></path></defs><g><g><g><use xlink:href="#f3cebfQfPr" opacity="1" fill="#703eff" fill-opacity="1"></use><g><use xlink:href="#f3cebfQfPr" opacity="1" fill-opacity="0" stroke="#000000" stroke-width="1" stroke-opacity="0"></use></g></g><g><use xlink:href="#a8yDXDlV1" opacity="1" fill="#ffdba9" fill-opacity="1"></use><g><use xlink:href="#a8yDXDlV1" opacity="1" fill-opacity="0" stroke="#000000" stroke-width="1" stroke-opacity="0"></use></g></g><g><use xlink:href="#exWjYffS1" opacity="1" fill="#5824d5" fill-opacity="1"></use><g><use xlink:href="#exWjYffS1" opacity="1" fill-opacity="0" stroke="#000000" stroke-width="1" stroke-opacity="0"></use></g></g><g><use xlink:href="#fLCKll5Fj" opacity="1" fill="#ffc473" fill-opacity="1"></use><g><use xlink:href="#fLCKll5Fj" opacity="1" fill-opacity="0" stroke="#000000" stroke-width="1" stroke-opacity="0"></use></g></g></g></g></svg>