<svg xmlns="http://www.w3.org/2000/svg" viewBox="0 0 184 236.09"><defs><style>.cls-1{fill:#009245;}.cls-2{fill:#fff;}</style></defs><g id="Lager_2" data-name="Lager 2"><g id="Lager_3" data-name="Lager 3"><path class="cls-1" d="M168.09,0H15.91A16,16,0,0,0,0,15.91V168.09A16,16,0,0,0,15.91,184h41.5a3.92,3.92,0,0,1,3.39,2l27.81,48.17a3.91,3.91,0,0,0,6.78,0L123.2,186a3.92,3.92,0,0,1,3.39-2h41.5A16,16,0,0,0,184,168.09V15.91A16,16,0,0,0,168.09,0Z"/><g id="Layer_2" data-name="Layer 2"><path class="cls-2" d="M78.22,153.27a4.73,4.73,0,0,1-2.54-.71,4.78,4.78,0,0,1-2.24-4.07v-46l-36.92-41a23.86,23.86,0,0,1-6.12-16v-2.2a4.78,4.78,0,0,1,4.78-4.78H150a4.78,4.78,0,0,1,4.78,4.78v2.2a23.91,23.91,0,0,1-6.12,16l-36.92,41v25.72a14.34,14.34,0,0,1-7.94,12.87L80.37,152.75A4.74,4.74,0,0,1,78.22,153.27ZM40.2,48.06a14.32,14.32,0,0,0,3.44,7L81.9,97.46a4.75,4.75,0,0,1,1.1,3.21v40.07l16.5-8.22a4.8,4.8,0,0,0,2.63-4.31V100.67a4.81,4.81,0,0,1,1.24-3.21l38.26-42.37a14.31,14.31,0,0,0,3.54-7Z"/></g></g></g></svg>