<svg xmlns="http://www.w3.org/2000/svg" viewBox="0 0 184 236.09"><defs><style>.cls-1{fill:#f15a24;}.cls-2{fill:#fff;}</style></defs><g id="Lager_2" data-name="Lager 2"><g id="Slow_down" data-name="Slow down"><path class="cls-1" d="M168.09,0H15.91A16,16,0,0,0,0,15.91V168.09A16,16,0,0,0,15.91,184h41.5a3.92,3.92,0,0,1,3.39,2l27.81,48.17a3.91,3.91,0,0,0,6.78,0L123.2,186a3.92,3.92,0,0,1,3.39-2h41.5A16,16,0,0,0,184,168.09V15.91A16,16,0,0,0,168.09,0Z"/><g id="Layer_2" data-name="Layer 2"><path class="cls-2" d="M91.73,158.83a5.4,5.4,0,1,1,0-10.79A54,54,0,1,0,47.58,125.1a5.41,5.41,0,0,1-8.83,6.24l0,0a64.77,64.77,0,1,1,53,27.53Z"/><path class="cls-2" d="M48.55,137.24h-27a5.4,5.4,0,1,1,0-10.79H43.15v-21.6a5.4,5.4,0,0,1,10.8,0v27A5.4,5.4,0,0,1,48.55,137.24Z"/><path class="cls-2" d="M75.54,115.65a5.4,5.4,0,0,1-3.86-9.2l0,0L86.33,91.85V67.07a5.4,5.4,0,0,1,10.8,0v27a5.36,5.36,0,0,1-1.57,3.83L79.37,114.08A5.4,5.4,0,0,1,75.54,115.65Z"/></g></g></g></svg>